<svg width="173" height="42" viewBox="0 0 173 42" fill="none" xmlns="http://www.w3.org/2000/svg"><path opacity=".5" d="M40.065 2.257 30.26 36.992a.224.224 0 0 1-.366.094l-6.564-6.228 4.92-17.407c.05-.157-.1-.3-.267-.252L9.636 17.866 3.105 11.67c-.116-.11-.066-.3.1-.347l36.594-9.319c.166-.031.316.11.266.253" fill="#00B37E"/><path opacity=".5" d="m23.33 30.858-2.526 8.987a.224.224 0 0 1-.366.095L.063 20.625c-.116-.11-.066-.3.1-.347l9.473-2.412z" fill="#00B37E"/><path d="M28.248 13.451 23.33 30.858 9.635 17.866l18.348-4.667c.166-.047.315.094.265.252" fill="#00B37E"/><path d="M63.274 29.5h-3.96l.025-2.923h3.935q1.475 0 2.486-.662 1.013-.675 1.524-1.962.525-1.287.525-3.11v-.887q0-1.4-.3-2.462-.287-1.061-.862-1.786a3.6 3.6 0 0 0-1.412-1.087q-.837-.375-1.923-.375h-4.073V11.31h4.073q1.823 0 3.335.625a7.5 7.5 0 0 1 2.636 1.762 7.9 7.9 0 0 1 1.712 2.748q.612 1.587.612 3.535v.863q0 1.936-.612 3.535a7.9 7.9 0 0 1-1.712 2.748 7.6 7.6 0 0 1-2.636 1.762q-1.524.612-3.373.612m-1.836-18.19V29.5H57.69V11.31zm20.176 0V29.5h-3.736V11.31zm5.596 0v2.936H72.37V11.31zm9.545 0h3.173l4.672 13.355 4.673-13.355h3.173l-6.571 18.19h-2.549zm-1.712 0h3.161l.575 13.018V29.5h-3.736zm15.954 0h3.173V29.5h-3.748v-5.172zm5.659 11.569v-.263q0-1.486.425-2.735a6.3 6.3 0 0 1 1.237-2.187 5.5 5.5 0 0 1 1.998-1.436q1.187-.525 2.724-.525 1.536 0 2.736.525 1.199.512 2.011 1.436.825.925 1.249 2.187.425 1.248.425 2.735v.263q0 1.474-.425 2.736a6.4 6.4 0 0 1-1.249 2.186 5.54 5.54 0 0 1-1.999 1.437q-1.187.512-2.723.512-1.537 0-2.736-.512a5.7 5.7 0 0 1-2.011-1.437 6.5 6.5 0 0 1-1.237-2.186 8.5 8.5 0 0 1-.425-2.736m3.598-.263v.263q0 .85.15 1.586.15.738.475 1.3.337.549.874.862t1.312.312q.75 0 1.287-.312a2.4 2.4 0 0 0 .862-.862q.324-.562.474-1.3a7.3 7.3 0 0 0 .163-1.586v-.263q0-.825-.163-1.549a4.1 4.1 0 0 0-.487-1.299 2.4 2.4 0 0 0-.862-.9q-.537-.324-1.299-.324t-1.299.325q-.526.324-.862.9a4.3 4.3 0 0 0-.475 1.298q-.15.725-.15 1.55m14.941-3.747V29.5h-3.598V15.983h3.373zm-.524 3.398h-.975q0-1.5.388-2.699.387-1.212 1.086-2.061a4.7 4.7 0 0 1 1.662-1.312q.975-.462 2.174-.462.949 0 1.736.275.788.275 1.349.874.575.6.875 1.587.312.987.312 2.41v8.62h-3.623v-8.632q0-.9-.25-1.4a1.4 1.4 0 0 0-.737-.7q-.475-.211-1.174-.212-.725 0-1.262.288-.525.287-.874.8a3.8 3.8 0 0 0-.512 1.174 5.7 5.7 0 0 0-.175 1.449m17.565 7.483q-1.575 0-2.824-.5a6.2 6.2 0 0 1-2.124-1.412 6.3 6.3 0 0 1-1.324-2.086 7 7 0 0 1-.462-2.548v-.5q0-1.537.437-2.811a6.6 6.6 0 0 1 1.249-2.211 5.5 5.5 0 0 1 1.999-1.437q1.174-.512 2.649-.512 1.437 0 2.548.475a5 5 0 0 1 1.862 1.349q.762.874 1.149 2.099.387 1.212.387 2.698v1.5h-10.743v-2.4h7.208v-.274q0-.75-.275-1.337a2.1 2.1 0 0 0-.799-.95q-.538-.35-1.375-.35-.711 0-1.224.313-.512.312-.837.875a4.8 4.8 0 0 0-.475 1.324q-.15.75-.15 1.649v.5q0 .811.225 1.499.237.686.662 1.187a3 3 0 0 0 1.05.774q.624.275 1.411.275.975 0 1.812-.375a3.9 3.9 0 0 0 1.462-1.162l1.749 1.9q-.426.611-1.162 1.174-.725.562-1.749.924-1.025.35-2.336.35m11.431-1.774 3.585-11.993h3.86l-5.434 15.553a8.5 8.5 0 0 1-.475 1.1 4.4 4.4 0 0 1-.787 1.112q-.487.538-1.237.874-.737.337-1.811.337a4.6 4.6 0 0 1-.837-.062q-.325-.063-.775-.175v-2.636h.288q.15.013.287.013.712 0 1.162-.163.45-.162.724-.5.275-.325.438-.85zm-1.5-11.993 2.936 9.794.512 3.81-2.448.263-4.86-13.867z" fill="#E1E1E6"/></svg>